<svg width="457" height="522" viewBox="0 0 457 522" fill="none" xmlns="http://www.w3.org/2000/svg">
<g clip-path="url(#clip0)">
<path d="M266.704 238.889L266.711 238.883C273.222 232.471 281.982 228.879 291.106 228.878L399.837 228.878L399.838 228.878C407.272 228.898 414.636 227.446 421.51 224.606C428.383 221.766 434.631 217.594 439.895 212.327C445.158 207.061 449.334 200.805 452.184 193.916C455.033 187.028 456.5 179.643 456.5 172.186L456.5 0.5L285.512 0.499985C278.071 0.519792 270.707 2.00958 263.84 4.88431C256.973 7.75912 250.738 11.9627 245.49 17.2551C240.242 22.5475 236.085 28.8251 233.255 35.7295C230.426 42.6339 228.98 50.0298 228.999 57.495L228.999 57.4963L228.999 166.571C229.012 171.084 228.138 175.555 226.426 179.729C224.715 183.902 222.2 187.695 219.026 190.892C219.026 190.893 219.025 190.894 219.025 190.894L-590.286 1020.25L-542.408 1065.15L266.704 238.889Z" stroke="#0C1E3D" stroke-opacity="0.15"/>
</g>
<defs>
<clipPath id="clip0">
<rect width="457" height="522" fill="white"/>
</clipPath>
</defs>
</svg>
